<svg xmlns="http://www.w3.org/2000/svg" xmlns:xlink="http://www.w3.org/1999/xlink" id="processonSvg1000" viewBox="91.125 72.0 1064.875 2264.0" width="1064.875" height="2264.0"><defs id="ProcessOnDefs1001"><marker id="ProcessOnMarker1092" markerUnits="userSpaceOnUse" orient="auto" markerWidth="16.23606797749979" markerHeight="10.550836550532098" viewBox="-1.0 -1.3763819204711736 16.23606797749979 10.550836550532098" refX="-1.0" refY="3.8990363547948754"><path id="ProcessOnPath1093" d="M12.0 3.8990363547948754L0.0 7.798072709589751V0.0Z" stroke="#323232" stroke-width="2.0" fill="#323232" transform="matrix(1.0,0.0,0.0,1.0,0.0,0.0)"/></marker><marker id="ProcessOnMarker1099" markerUnits="userSpaceOnUse" orient="auto" markerWidth="16.23606797749979" markerHeight="10.550836550532098" viewBox="-1.0 -1.3763819204711736 16.23606797749979 10.550836550532098" refX="-1.0" refY="3.8990363547948754"><path id="ProcessOnPath1100" d="M12.0 3.8990363547948754L0.0 7.798072709589751V0.0Z" stroke="#323232" stroke-width="2.0" fill="#323232" transform="matrix(1.0,0.0,0.0,1.0,0.0,0.0)"/></marker><marker id="ProcessOnMarker1148" markerUnits="userSpaceOnUse" orient="auto" markerWidth="16.23606797749979" markerHeight="10.550836550532098" viewBox="-1.0 -1.3763819204711736 16.23606797749979 10.550836550532098" refX="-1.0" refY="3.8990363547948754"><path id="ProcessOnPath1149" d="M12.0 3.8990363547948754L0.0 7.798072709589751V0.0Z" stroke="#323232" stroke-width="2.0" fill="#323232" transform="matrix(1.0,0.0,0.0,1.0,0.0,0.0)"/></marker></defs><g id="ProcessOnG1002"><path id="ProcessOnPath1003" d="M91.125 72.0H1156.0V2336.0H91.125V72.0Z" fill="none"/><g id="ProcessOnG1004"><g id="ProcessOnG1005" transform="matrix(1.0,0.0,0.0,1.0,284.0,102.0)" opacity="1.0"><path id="ProcessOnPath1006" d="M65.5 30.0L65.5 2214.0" stroke="#323232" stroke-width="2.0" stroke-dasharray="2.0 3.0" opacity="1.0" fill="none"/><path id="ProcessOnPath1007" d="M0.0 0.0L131.0 0.0L131.0 30.0L0.0 30.0Z" stroke="#323232" stroke-width="2.0" stroke-dasharray="none" opacity="1.0" fill="#ffffff"/><g id="ProcessOnG1008" transform="matrix(1.0,0.0,0.0,1.0,10.0,6.875)"><text id="ProcessOnText1009" fill="#000000" font-size="13" x="54.5" y="13.325" font-family="微软雅黑" font-weight="normal" font-style="normal" text-decoration="none" family="微软雅黑" text-anchor="middle" size="13">client A</text></g></g><g id="ProcessOnG1010" transform="matrix(1.0,0.0,0.0,1.0,830.0,92.0)" opacity="1.0"><path id="ProcessOnPath1011" d="M121.0 30.0L121.0 1597.0" stroke="#323232" stroke-width="2.0" stroke-dasharray="2.0 3.0" opacity="1.0" fill="none"/><path id="ProcessOnPath1012" d="M0.0 0.0L242.0 0.0L242.0 30.0L0.0 30.0Z" stroke="#323232" stroke-width="2.0" stroke-dasharray="none" opacity="1.0" fill="#ffffff"/><g id="ProcessOnG1013" transform="matrix(1.0,0.0,0.0,1.0,10.0,6.875)"><text id="ProcessOnText1014" fill="#000000" font-size="13" x="110.0" y="13.325" font-family="微软雅黑" font-weight="normal" font-style="normal" text-decoration="none" family="微软雅黑" text-anchor="middle" size="13">client B</text></g></g><g id="ProcessOnG1015" transform="matrix(1.0,0.0,0.0,1.0,157.0,155.0)" opacity="1.0"><path id="ProcessOnPath1016" d="M0.0 0.0L376.0 0.0L376.0 38.0L0.0 38.0Z" stroke="#323232" stroke-width="2.0" stroke-dasharray="none" opacity="1.0" fill="#ffffff"/><g id="ProcessOnG1017" transform="matrix(1.0,0.0,0.0,1.0,10.0,10.875)"><text id="ProcessOnText1018" fill="#000000" font-size="13" x="177.0" y="13.325" font-family="微软雅黑" font-weight="normal" font-style="normal" text-decoration="none" family="微软雅黑" text-anchor="middle" size="13">set session transaction isolation level repeatable read;</text></g></g><g id="ProcessOnG1019" transform="matrix(1.0,0.0,0.0,1.0,239.125,276.0)" opacity="1.0"><path id="ProcessOnPath1020" d="M0.0 0.0L211.75 0.0L211.75 63.0L0.0 63.0Z" stroke="#323232" stroke-width="2.0" stroke-dasharray="none" opacity="1.0" fill="#ffffff"/><g id="ProcessOnG1021" transform="matrix(1.0,0.0,0.0,1.0,10.0,7.125)"><text id="ProcessOnText1022" fill="#000000" font-size="13" x="94.875" y="13.325" font-family="微软雅黑" font-weight="normal" font-style="normal" text-decoration="none" family="微软雅黑" text-anchor="middle" size="13">mysql&gt; select * from account;</text><text id="ProcessOnText1023" fill="#000000" font-size="13" x="94.875" y="29.575" font-family="微软雅黑" font-weight="normal" font-style="normal" text-decoration="none" family="微软雅黑" text-anchor="middle" size="13"></text><text id="ProcessOnText1024" fill="#000000" font-size="13" x="94.875" y="45.825" font-family="微软雅黑" font-weight="normal" font-style="normal" text-decoration="none" family="微软雅黑" text-anchor="middle" size="13">1  lilei  400</text></g></g><g id="ProcessOnG1025" transform="matrix(1.0,0.0,0.0,1.0,275.0,216.0)" opacity="1.0"><path id="ProcessOnPath1026" d="M0.0 0.0L140.0 0.0L140.0 34.0L0.0 34.0Z" stroke="#323232" stroke-width="2.0" stroke-dasharray="none" opacity="1.0" fill="#ffffff"/><g id="ProcessOnG1027" transform="matrix(1.0,0.0,0.0,1.0,10.0,8.875)"><text id="ProcessOnText1028" fill="#000000" font-size="13" x="59.0" y="13.325" font-family="微软雅黑" font-weight="normal" font-style="normal" text-decoration="none" family="微软雅黑" text-anchor="middle" size="13">start transaction;</text></g></g><g id="ProcessOnG1029" transform="matrix(1.0,0.0,0.0,1.0,761.75,557.0)" opacity="1.0"><path id="ProcessOnPath1030" d="M0.0 4.0Q0.0 0.0 4.0 0.0L368.5 0.0Q372.5 0.0 372.5 4.0L372.5 27.0Q372.5 31.0 368.5 31.0L4.0 31.0Q0.0 31.0 0.0 27.0Z" stroke="#323232" stroke-width="2.0" stroke-dasharray="none" opacity="1.0" fill="#ffffff"/><g id="ProcessOnG1031" transform="matrix(1.0,0.0,0.0,1.0,10.0,7.375)"><text id="ProcessOnText1032" fill="#000000" font-size="13" x="175.25" y="13.325" font-family="微软雅黑" font-weight="normal" font-style="normal" text-decoration="none" family="微软雅黑" text-anchor="middle" size="13">update account set balance = balance - 50 where id =1;</text></g></g><g id="ProcessOnG1033" transform="matrix(1.0,0.0,0.0,1.0,910.0,803.0)" opacity="1.0"><path id="ProcessOnPath1034" d="M0.0 4.0Q0.0 0.0 4.0 0.0L72.0 0.0Q76.0 0.0 76.0 4.0L76.0 36.0Q76.0 40.0 72.0 40.0L4.0 40.0Q0.0 40.0 0.0 36.0Z" stroke="#323232" stroke-width="2.0" stroke-dasharray="none" opacity="1.0" fill="#ffffff"/><g id="ProcessOnG1035" transform="matrix(1.0,0.0,0.0,1.0,10.0,11.875)"><text id="ProcessOnText1036" fill="#000000" font-size="13" x="27.0" y="13.325" font-family="微软雅黑" font-weight="normal" font-style="normal" text-decoration="none" family="微软雅黑" text-anchor="middle" size="13">commit;</text></g></g><g id="ProcessOnG1037" transform="matrix(1.0,0.0,0.0,1.0,760.0,367.0)" opacity="1.0"><path id="ProcessOnPath1038" d="M0.0 0.0L376.0 0.0L376.0 38.0L0.0 38.0Z" stroke="#323232" stroke-width="2.0" stroke-dasharray="none" opacity="1.0" fill="#ffffff"/><g id="ProcessOnG1039" transform="matrix(1.0,0.0,0.0,1.0,10.0,10.875)"><text id="ProcessOnText1040" fill="#000000" font-size="13" x="177.0" y="13.325" font-family="微软雅黑" font-weight="normal" font-style="normal" text-decoration="none" family="微软雅黑" text-anchor="middle" size="13">set session transaction isolation level repeatable read;</text></g></g><g id="ProcessOnG1041" transform="matrix(1.0,0.0,0.0,1.0,842.125,477.0)" opacity="1.0"><path id="ProcessOnPath1042" d="M0.0 0.0L211.75 0.0L211.75 63.0L0.0 63.0Z" stroke="#323232" stroke-width="2.0" stroke-dasharray="none" opacity="1.0" fill="#ffffff"/><g id="ProcessOnG1043" transform="matrix(1.0,0.0,0.0,1.0,10.0,7.125)"><text id="ProcessOnText1044" fill="#000000" font-size="13" x="94.875" y="13.325" font-family="微软雅黑" font-weight="normal" font-style="normal" text-decoration="none" family="微软雅黑" text-anchor="middle" size="13">mysql&gt; select * from account;</text><text id="ProcessOnText1045" fill="#000000" font-size="13" x="94.875" y="29.575" font-family="微软雅黑" font-weight="normal" font-style="normal" text-decoration="none" family="微软雅黑" text-anchor="middle" size="13"></text><text id="ProcessOnText1046" fill="#000000" font-size="13" x="94.875" y="45.825" font-family="微软雅黑" font-weight="normal" font-style="normal" text-decoration="none" family="微软雅黑" text-anchor="middle" size="13">1  lilei  400</text></g></g><g id="ProcessOnG1047" transform="matrix(1.0,0.0,0.0,1.0,878.0,423.0)" opacity="1.0"><path id="ProcessOnPath1048" d="M0.0 0.0L140.0 0.0L140.0 34.0L0.0 34.0Z" stroke="#323232" stroke-width="2.0" stroke-dasharray="none" opacity="1.0" fill="#ffffff"/><g id="ProcessOnG1049" transform="matrix(1.0,0.0,0.0,1.0,10.0,8.875)"><text id="ProcessOnText1050" fill="#000000" font-size="13" x="59.0" y="13.325" font-family="微软雅黑" font-weight="normal" font-style="normal" text-decoration="none" family="微软雅黑" text-anchor="middle" size="13">start transaction;</text></g></g><g id="ProcessOnG1051" transform="matrix(1.0,0.0,0.0,1.0,842.125,610.0)" opacity="1.0"><path id="ProcessOnPath1052" d="M0.0 0.0L211.75 0.0L211.75 63.0L0.0 63.0Z" stroke="#323232" stroke-width="2.0" stroke-dasharray="none" opacity="1.0" fill="#ffffff"/><g id="ProcessOnG1053" transform="matrix(1.0,0.0,0.0,1.0,10.0,7.125)"><text id="ProcessOnText1054" fill="#000000" font-size="13" x="94.875" y="13.325" font-family="微软雅黑" font-weight="normal" font-style="normal" text-decoration="none" family="微软雅黑" text-anchor="middle" size="13">mysql&gt; select * from account;</text><text id="ProcessOnText1055" fill="#000000" font-size="13" x="94.875" y="29.575" font-family="微软雅黑" font-weight="normal" font-style="normal" text-decoration="none" family="微软雅黑" text-anchor="middle" size="13"></text><text id="ProcessOnText1056" fill="#000000" font-size="13" x="94.875" y="45.825" font-family="微软雅黑" font-weight="normal" font-style="normal" text-decoration="none" family="微软雅黑" text-anchor="middle" size="13">1  lilei  350</text></g></g><g id="ProcessOnG1057" transform="matrix(1.0,0.0,0.0,1.0,239.125,698.0)" opacity="1.0"><path id="ProcessOnPath1058" d="M0.0 0.0L211.75 0.0L211.75 63.0L0.0 63.0Z" stroke="#323232" stroke-width="2.0" stroke-dasharray="none" opacity="1.0" fill="#ffffff"/><g id="ProcessOnG1059" transform="matrix(1.0,0.0,0.0,1.0,10.0,7.125)"><text id="ProcessOnText1060" fill="#000000" font-size="13" x="94.875" y="13.325" font-family="微软雅黑" font-weight="normal" font-style="normal" text-decoration="none" family="微软雅黑" text-anchor="middle" size="13">mysql&gt; select * from account;</text><text id="ProcessOnText1061" fill="#000000" font-size="13" x="94.875" y="29.575" font-family="微软雅黑" font-weight="normal" font-style="normal" text-decoration="none" family="微软雅黑" text-anchor="middle" size="13"></text><text id="ProcessOnText1062" fill="#000000" font-size="13" x="94.875" y="45.825" font-family="微软雅黑" font-weight="normal" font-style="normal" text-decoration="none" family="微软雅黑" text-anchor="middle" size="13">1  lilei  400</text></g></g><g id="ProcessOnG1063" transform="matrix(1.0,0.0,0.0,1.0,842.125,875.0)" opacity="1.0"><path id="ProcessOnPath1064" d="M0.0 0.0L211.75 0.0L211.75 63.0L0.0 63.0Z" stroke="#323232" stroke-width="2.0" stroke-dasharray="none" opacity="1.0" fill="#ffffff"/><g id="ProcessOnG1065" transform="matrix(1.0,0.0,0.0,1.0,10.0,7.125)"><text id="ProcessOnText1066" fill="#000000" font-size="13" x="94.875" y="13.325" font-family="微软雅黑" font-weight="normal" font-style="normal" text-decoration="none" family="微软雅黑" text-anchor="middle" size="13">mysql&gt; select * from account;</text><text id="ProcessOnText1067" fill="#000000" font-size="13" x="94.875" y="29.575" font-family="微软雅黑" font-weight="normal" font-style="normal" text-decoration="none" family="微软雅黑" text-anchor="middle" size="13"></text><text id="ProcessOnText1068" fill="#000000" font-size="13" x="94.875" y="45.825" font-family="微软雅黑" font-weight="normal" font-style="normal" text-decoration="none" family="微软雅黑" text-anchor="middle" size="13">1  lilei  350</text></g></g><g id="ProcessOnG1069" transform="matrix(1.0,0.0,0.0,1.0,239.125,972.0)" opacity="1.0"><path id="ProcessOnPath1070" d="M0.0 0.0L211.75 0.0L211.75 63.0L0.0 63.0Z" stroke="#323232" stroke-width="2.0" stroke-dasharray="none" opacity="1.0" fill="#ffffff"/><g id="ProcessOnG1071" transform="matrix(1.0,0.0,0.0,1.0,10.0,7.125)"><text id="ProcessOnText1072" fill="#000000" font-size="13" x="94.875" y="13.325" font-family="微软雅黑" font-weight="normal" font-style="normal" text-decoration="none" family="微软雅黑" text-anchor="middle" size="13">mysql&gt; select * from account;</text><text id="ProcessOnText1073" fill="#000000" font-size="13" x="94.875" y="29.575" font-family="微软雅黑" font-weight="normal" font-style="normal" text-decoration="none" family="微软雅黑" text-anchor="middle" size="13"></text><text id="ProcessOnText1074" fill="#000000" font-size="13" x="94.875" y="45.825" font-family="微软雅黑" font-weight="normal" font-style="normal" text-decoration="none" family="微软雅黑" text-anchor="middle" size="13">1  lilei  400</text></g></g><g id="ProcessOnG1075" transform="matrix(1.0,0.0,0.0,1.0,158.75,1060.0)" opacity="1.0"><path id="ProcessOnPath1076" d="M0.0 4.0Q0.0 0.0 4.0 0.0L368.5 0.0Q372.5 0.0 372.5 4.0L372.5 27.0Q372.5 31.0 368.5 31.0L4.0 31.0Q0.0 31.0 0.0 27.0Z" stroke="#323232" stroke-width="2.0" stroke-dasharray="none" opacity="1.0" fill="#ffffff"/><g id="ProcessOnG1077" transform="matrix(1.0,0.0,0.0,1.0,10.0,7.375)"><text id="ProcessOnText1078" fill="#000000" font-size="13" x="175.25" y="13.325" font-family="微软雅黑" font-weight="normal" font-style="normal" text-decoration="none" family="微软雅黑" text-anchor="middle" size="13">update account set balance = balance - 50 where id =1;</text></g></g><g id="ProcessOnG1079" transform="matrix(1.0,0.0,0.0,1.0,239.125,1117.0)" opacity="1.0"><path id="ProcessOnPath1080" d="M0.0 0.0L211.75 0.0L211.75 63.0L0.0 63.0Z" stroke="#323232" stroke-width="2.0" stroke-dasharray="none" opacity="1.0" fill="#ffffff"/><g id="ProcessOnG1081" transform="matrix(1.0,0.0,0.0,1.0,10.0,7.125)"><text id="ProcessOnText1082" fill="#000000" font-size="13" x="94.875" y="13.325" font-family="微软雅黑" font-weight="normal" font-style="normal" text-decoration="none" family="微软雅黑" text-anchor="middle" size="13">mysql&gt; select * from account;</text><text id="ProcessOnText1083" fill="#000000" font-size="13" x="94.875" y="29.575" font-family="微软雅黑" font-weight="normal" font-style="normal" text-decoration="none" family="微软雅黑" text-anchor="middle" size="13"></text><text id="ProcessOnText1084" fill="#000000" font-size="13" x="94.875" y="45.825" font-family="微软雅黑" font-weight="normal" font-style="normal" text-decoration="none" family="微软雅黑" text-anchor="middle" size="13">1  lilei  300</text></g></g><g id="ProcessOnG1085" transform="matrix(1.0,0.0,0.0,1.0,295.0,1200.0)" opacity="1.0"><path id="ProcessOnPath1086" d="M0.0 4.0Q0.0 0.0 4.0 0.0L96.0 0.0Q100.0 0.0 100.0 4.0L100.0 66.0Q100.0 70.0 96.0 70.0L4.0 70.0Q0.0 70.0 0.0 66.0Z" stroke="#323232" stroke-width="2.0" stroke-dasharray="none" opacity="1.0" fill="#ffffff"/><g id="ProcessOnG1087" transform="matrix(1.0,0.0,0.0,1.0,10.0,18.75)"><text id="ProcessOnText1088" fill="#000000" font-size="13" x="39.0" y="13.325" font-family="微软雅黑" font-weight="normal" font-style="normal" text-decoration="none" family="微软雅黑" text-anchor="middle" size="13">数据库实际是</text><text id="ProcessOnText1089" fill="#000000" font-size="13" x="39.0" y="29.575" font-family="微软雅黑" font-weight="normal" font-style="normal" text-decoration="none" family="微软雅黑" text-anchor="middle" size="13">300</text></g></g><g id="ProcessOnG1090"><path id="ProcessOnPath1091" d="M450.875 307.5L480.875 307.5L480.875 729.5L466.1110679774998 729.5" stroke="#323232" stroke-width="2.0" stroke-dasharray="none" fill="none" marker-end="url(#ProcessOnMarker1092)"/><g id="ProcessOnG1094" transform="matrix(1.0,0.0,0.0,1.0,480.875,493.38196601125014)"><path id="ProcessOnPath1095" d="M0 0H112.0V35.0H0Z" fill="#fff" transform="matrix(1.0,0.0,0.0,1.0,-56.0,0.0)"/><text id="ProcessOnText1096" fill="#000000" font-size="28" x="0.0" y="28.700000000000003" font-family="微软雅黑" font-weight="normal" font-style="normal" text-decoration="none" family="微软雅黑" text-anchor="middle" size="28">解决脏读</text></g></g><g id="ProcessOnG1097"><path id="ProcessOnPath1098" d="M239.125 729.5L209.125 729.5L209.125 1003.5L223.8889320225002 1003.5" stroke="#323232" stroke-width="2.0" stroke-dasharray="none" fill="none" marker-end="url(#ProcessOnMarker1099)"/><g id="ProcessOnG1101" transform="matrix(1.0,0.0,0.0,1.0,209.125,841.3819660112501)"><path id="ProcessOnPath1102" d="M0 0H196.0V35.0H0Z" fill="#fff" transform="matrix(1.0,0.0,0.0,1.0,-98.0,0.0)"/><text id="ProcessOnText1103" fill="#000000" font-size="28" x="0.0" y="28.700000000000003" font-family="微软雅黑" font-weight="normal" font-style="normal" text-decoration="none" family="微软雅黑" text-anchor="middle" size="28">解决不可重复读</text></g></g><g id="ProcessOnG1104" transform="matrix(1.0,0.0,0.0,1.0,431.25,1200.0)" opacity="1.0"><path id="ProcessOnPath1105" d="M0.0 4.0Q0.0 0.0 4.0 0.0L162.75 0.0Q166.75 0.0 166.75 4.0L166.75 66.0Q166.75 70.0 162.75 70.0L4.0 70.0Q0.0 70.0 0.0 66.0Z" stroke="#323232" stroke-width="2.0" stroke-dasharray="none" opacity="1.0" fill="#ffffff"/><g id="ProcessOnG1106" transform="matrix(1.0,0.0,0.0,1.0,10.0,10.625)"><text id="ProcessOnText1107" fill="#000000" font-size="13" x="72.375" y="13.325" font-family="微软雅黑" font-weight="normal" font-style="normal" text-decoration="none" family="微软雅黑" text-anchor="middle" size="13">最终数据库中的数据正确</text><text id="ProcessOnText1108" fill="#000000" font-size="13" x="72.375" y="29.575" font-family="微软雅黑" font-weight="normal" font-style="normal" text-decoration="none" family="微软雅黑" text-anchor="middle" size="13"></text><text id="ProcessOnText1109" fill="#000000" font-size="13" x="72.375" y="45.825" font-family="微软雅黑" font-weight="normal" font-style="normal" text-decoration="none" family="微软雅黑" text-anchor="middle" size="13">可重复读</text></g></g><g id="ProcessOnG1110" transform="matrix(1.0,0.0,0.0,1.0,878.0,1301.0)" opacity="1.0"><path id="ProcessOnPath1111" d="M0.0 0.0L140.0 0.0L140.0 34.0L0.0 34.0Z" stroke="#323232" stroke-width="2.0" stroke-dasharray="none" opacity="1.0" fill="#ffffff"/><g id="ProcessOnG1112" transform="matrix(1.0,0.0,0.0,1.0,10.0,8.875)"><text id="ProcessOnText1113" fill="#000000" font-size="13" x="59.0" y="13.325" font-family="微软雅黑" font-weight="normal" font-style="normal" text-decoration="none" family="微软雅黑" text-anchor="middle" size="13">start transaction;</text></g></g><g id="ProcessOnG1114" transform="matrix(1.0,0.0,0.0,1.0,761.75,1449.0)" opacity="1.0"><path id="ProcessOnPath1115" d="M0.0 4.0Q0.0 0.0 4.0 0.0L368.5 0.0Q372.5 0.0 372.5 4.0L372.5 27.0Q372.5 31.0 368.5 31.0L4.0 31.0Q0.0 31.0 0.0 27.0Z" stroke="#323232" stroke-width="2.0" stroke-dasharray="none" opacity="1.0" fill="#ffffff"/><g id="ProcessOnG1116" transform="matrix(1.0,0.0,0.0,1.0,10.0,7.375)"><text id="ProcessOnText1117" fill="#000000" font-size="13" x="175.25" y="13.325" font-family="微软雅黑" font-weight="normal" font-style="normal" text-decoration="none" family="微软雅黑" text-anchor="middle" size="13">insert into account values('', 'lily', 700);</text></g></g><g id="ProcessOnG1118" transform="matrix(1.0,0.0,0.0,1.0,842.125,1358.0)" opacity="1.0"><path id="ProcessOnPath1119" d="M0.0 0.0L211.75 0.0L211.75 63.0L0.0 63.0Z" stroke="#323232" stroke-width="2.0" stroke-dasharray="none" opacity="1.0" fill="#ffffff"/><g id="ProcessOnG1120" transform="matrix(1.0,0.0,0.0,1.0,10.0,7.125)"><text id="ProcessOnText1121" fill="#000000" font-size="13" x="94.875" y="13.325" font-family="微软雅黑" font-weight="normal" font-style="normal" text-decoration="none" family="微软雅黑" text-anchor="middle" size="13">mysql&gt; select * from account;</text><text id="ProcessOnText1122" fill="#000000" font-size="13" x="94.875" y="29.575" font-family="微软雅黑" font-weight="normal" font-style="normal" text-decoration="none" family="微软雅黑" text-anchor="middle" size="13"></text><text id="ProcessOnText1123" fill="#000000" font-size="13" x="94.875" y="45.825" font-family="微软雅黑" font-weight="normal" font-style="normal" text-decoration="none" family="微软雅黑" text-anchor="middle" size="13">3 rows in set (0.00 sec)</text></g></g><g id="ProcessOnG1124" transform="matrix(1.0,0.0,0.0,1.0,913.0,1592.0)" opacity="1.0"><path id="ProcessOnPath1125" d="M0.0 4.0Q0.0 0.0 4.0 0.0L72.0 0.0Q76.0 0.0 76.0 4.0L76.0 36.0Q76.0 40.0 72.0 40.0L4.0 40.0Q0.0 40.0 0.0 36.0Z" stroke="#323232" stroke-width="2.0" stroke-dasharray="none" opacity="1.0" fill="#ffffff"/><g id="ProcessOnG1126" transform="matrix(1.0,0.0,0.0,1.0,10.0,11.875)"><text id="ProcessOnText1127" fill="#000000" font-size="13" x="27.0" y="13.325" font-family="微软雅黑" font-weight="normal" font-style="normal" text-decoration="none" family="微软雅黑" text-anchor="middle" size="13">commit;</text></g></g><g id="ProcessOnG1128" transform="matrix(1.0,0.0,0.0,1.0,845.125,1497.0)" opacity="1.0"><path id="ProcessOnPath1129" d="M0.0 0.0L211.75 0.0L211.75 63.0L0.0 63.0Z" stroke="#323232" stroke-width="2.0" stroke-dasharray="none" opacity="1.0" fill="#ffffff"/><g id="ProcessOnG1130" transform="matrix(1.0,0.0,0.0,1.0,10.0,7.125)"><text id="ProcessOnText1131" fill="#000000" font-size="13" x="94.875" y="13.325" font-family="微软雅黑" font-weight="normal" font-style="normal" text-decoration="none" family="微软雅黑" text-anchor="middle" size="13">mysql&gt; select * from account;</text><text id="ProcessOnText1132" fill="#000000" font-size="13" x="94.875" y="29.575" font-family="微软雅黑" font-weight="normal" font-style="normal" text-decoration="none" family="微软雅黑" text-anchor="middle" size="13"></text><text id="ProcessOnText1133" fill="#000000" font-size="13" x="94.875" y="45.825" font-family="微软雅黑" font-weight="normal" font-style="normal" text-decoration="none" family="微软雅黑" text-anchor="middle" size="13">4 rows in set (0.00 sec)</text></g></g><g id="ProcessOnG1134" transform="matrix(1.0,0.0,0.0,1.0,239.125,1514.0)" opacity="1.0"><path id="ProcessOnPath1135" d="M0.0 0.0L211.75 0.0L211.75 63.0L0.0 63.0Z" stroke="#323232" stroke-width="2.0" stroke-dasharray="none" opacity="1.0" fill="#ffffff"/><g id="ProcessOnG1136" transform="matrix(1.0,0.0,0.0,1.0,10.0,7.125)"><text id="ProcessOnText1137" fill="#000000" font-size="13" x="94.875" y="13.325" font-family="微软雅黑" font-weight="normal" font-style="normal" text-decoration="none" family="微软雅黑" text-anchor="middle" size="13">mysql&gt; select * from account;</text><text id="ProcessOnText1138" fill="#000000" font-size="13" x="94.875" y="29.575" font-family="微软雅黑" font-weight="normal" font-style="normal" text-decoration="none" family="微软雅黑" text-anchor="middle" size="13"></text><text id="ProcessOnText1139" fill="#000000" font-size="13" x="94.875" y="45.825" font-family="微软雅黑" font-weight="normal" font-style="normal" text-decoration="none" family="微软雅黑" text-anchor="middle" size="13">3 rows in set (0.00 sec)</text></g></g><g id="ProcessOnG1140" transform="matrix(1.0,0.0,0.0,1.0,239.125,1660.0)" opacity="1.0"><path id="ProcessOnPath1141" d="M0.0 0.0L211.75 0.0L211.75 63.0L0.0 63.0Z" stroke="#323232" stroke-width="2.0" stroke-dasharray="none" opacity="1.0" fill="#ffffff"/><g id="ProcessOnG1142" transform="matrix(1.0,0.0,0.0,1.0,10.0,7.125)"><text id="ProcessOnText1143" fill="#000000" font-size="13" x="94.875" y="13.325" font-family="微软雅黑" font-weight="normal" font-style="normal" text-decoration="none" family="微软雅黑" text-anchor="middle" size="13">mysql&gt; select * from account;</text><text id="ProcessOnText1144" fill="#000000" font-size="13" x="94.875" y="29.575" font-family="微软雅黑" font-weight="normal" font-style="normal" text-decoration="none" family="微软雅黑" text-anchor="middle" size="13"></text><text id="ProcessOnText1145" fill="#000000" font-size="13" x="94.875" y="45.825" font-family="微软雅黑" font-weight="normal" font-style="normal" text-decoration="none" family="微软雅黑" text-anchor="middle" size="13">3 rows in set (0.00 sec)</text></g></g><g id="ProcessOnG1146"><path id="ProcessOnPath1147" d="M450.875 1545.5L480.875 1545.5L480.875 1691.5L466.1110679774998 1691.5" stroke="#323232" stroke-width="2.0" stroke-dasharray="none" fill="none" marker-end="url(#ProcessOnMarker1148)"/><g id="ProcessOnG1150" transform="matrix(1.0,0.0,0.0,1.0,480.875,1597.1319660112501)"><path id="ProcessOnPath1151" d="M0 0H176.0V27.5H0Z" fill="#fff" transform="matrix(1.0,0.0,0.0,1.0,-88.0,0.0)"/><text id="ProcessOnText1152" fill="#000000" font-size="22" x="0.0" y="22.55" font-family="微软雅黑" font-weight="normal" font-style="normal" text-decoration="none" family="微软雅黑" text-anchor="middle" size="22">没有查出新增数据</text></g></g><g id="ProcessOnG1153" transform="matrix(1.0,0.0,0.0,1.0,638.875,1731.0)" opacity="1.0"><path id="ProcessOnPath1154" d="M0.0 0.0L433.125 0.0L433.125 98.0L0.0 98.0Z" stroke="#323232" stroke-width="2.0" stroke-dasharray="none" opacity="1.0" fill="#ffffff"/><g id="ProcessOnG1155" transform="matrix(1.0,0.0,0.0,1.0,10.0,19.0)"><text id="ProcessOnText1156" fill="#000000" font-size="16" x="205.5625" y="16.4" font-family="微软雅黑" font-weight="normal" font-style="normal" text-decoration="none" family="微软雅黑" text-anchor="middle" size="16">B端在新增数据提交前后，A端都没有读取到新数据，A端</text><text id="ProcessOnText1157" fill="#000000" font-size="16" x="205.5625" y="36.4" font-family="微软雅黑" font-weight="normal" font-style="normal" text-decoration="none" family="微软雅黑" text-anchor="middle" size="16">看到的是老数据，此时A端目标是更新看到的所有老数据，</text><text id="ProcessOnText1158" fill="#000000" font-size="16" x="205.5625" y="56.4" font-family="微软雅黑" font-weight="normal" font-style="normal" text-decoration="none" family="微软雅黑" text-anchor="middle" size="16">但实际更新完成后却把新数据也更新了，造成逻辑错误</text></g></g><g id="ProcessOnG1159" transform="matrix(1.0,0.0,0.0,1.0,158.75,1962.0)" opacity="1.0"><path id="ProcessOnPath1160" d="M0.0 4.0Q0.0 0.0 4.0 0.0L368.5 0.0Q372.5 0.0 372.5 4.0L372.5 27.0Q372.5 31.0 368.5 31.0L4.0 31.0Q0.0 31.0 0.0 27.0Z" stroke="#323232" stroke-width="2.0" stroke-dasharray="none" opacity="1.0" fill="#ffffff"/><g id="ProcessOnG1161" transform="matrix(1.0,0.0,0.0,1.0,10.0,7.375)"><text id="ProcessOnText1162" fill="#000000" font-size="13" x="175.25" y="13.325" font-family="微软雅黑" font-weight="normal" font-style="normal" text-decoration="none" family="微软雅黑" text-anchor="middle" size="13">update account set balance = 500;</text></g></g><g id="ProcessOnG1163" transform="matrix(1.0,0.0,0.0,1.0,243.625,2020.0)" opacity="1.0"><path id="ProcessOnPath1164" d="M0.0 0.0L211.75 0.0L211.75 63.0L0.0 63.0Z" stroke="#323232" stroke-width="2.0" stroke-dasharray="none" opacity="1.0" fill="#ffffff"/><g id="ProcessOnG1165" transform="matrix(1.0,0.0,0.0,1.0,10.0,7.125)"><text id="ProcessOnText1166" fill="#000000" font-size="13" x="94.875" y="13.325" font-family="微软雅黑" font-weight="normal" font-style="normal" text-decoration="none" family="微软雅黑" text-anchor="middle" size="13">mysql&gt; select * from account;</text><text id="ProcessOnText1167" fill="#000000" font-size="13" x="94.875" y="29.575" font-family="微软雅黑" font-weight="normal" font-style="normal" text-decoration="none" family="微软雅黑" text-anchor="middle" size="13"></text><text id="ProcessOnText1168" fill="#000000" font-size="13" x="94.875" y="45.825" font-family="微软雅黑" font-weight="normal" font-style="normal" text-decoration="none" family="微软雅黑" text-anchor="middle" size="13">4 rows in set (0.00 sec)</text></g></g><g id="ProcessOnG1169" transform="matrix(1.0,0.0,0.0,1.0,636.0,1660.0)" opacity="1.0"><path id="ProcessOnPath1170" d="M0.0 0.0L68.0 0.0L68.0 41.0L0.0 41.0Z" stroke="#323232" stroke-width="2.0" stroke-dasharray="none" opacity="1.0" fill="#ffffff"/><g id="ProcessOnG1171" transform="matrix(1.0,0.0,0.0,1.0,10.0,12.375)"><text id="ProcessOnText1172" fill="#000000" font-size="13" x="23.0" y="13.325" font-family="微软雅黑" font-weight="normal" font-style="normal" text-decoration="none" family="微软雅黑" text-anchor="middle" size="13">幻读</text></g></g></g></g></svg>