<svg xmlns="http://www.w3.org/2000/svg" xmlns:xlink="http://www.w3.org/1999/xlink" id="processonSvg1000" viewBox="170.0 72.0 1052.0 824.0" width="1052.0" height="824.0"><defs id="ProcessOnDefs1001"/><g id="ProcessOnG1002"><path id="ProcessOnPath1003" d="M170.0 72.0H1222.0V896.0H170.0V72.0Z" fill="none"/><g id="ProcessOnG1004"><g id="ProcessOnG1005" transform="matrix(1.0,0.0,0.0,1.0,284.0,102.0)" opacity="1.0"><path id="ProcessOnPath1006" d="M94.0 30.0L94.0 764.0" stroke="#323232" stroke-width="2.0" stroke-dasharray="2.0 3.0" opacity="1.0" fill="none"/><path id="ProcessOnPath1007" d="M0.0 0.0L188.0 0.0L188.0 30.0L0.0 30.0Z" stroke="#323232" stroke-width="2.0" stroke-dasharray="none" opacity="1.0" fill="#ffffff"/><g id="ProcessOnG1008" transform="matrix(1.0,0.0,0.0,1.0,10.0,6.875)"><text id="ProcessOnText1009" fill="#000000" font-size="13" x="83.0" y="13.325" font-family="微软雅黑" font-weight="normal" font-style="normal" text-decoration="none" family="微软雅黑" text-anchor="middle" size="13">client A</text></g></g><g id="ProcessOnG1010" transform="matrix(1.0,0.0,0.0,1.0,830.0,92.0)" opacity="1.0"><path id="ProcessOnPath1011" d="M121.0 30.0L121.0 784.0" stroke="#323232" stroke-width="2.0" stroke-dasharray="2.0 3.0" opacity="1.0" fill="none"/><path id="ProcessOnPath1012" d="M0.0 0.0L242.0 0.0L242.0 30.0L0.0 30.0Z" stroke="#323232" stroke-width="2.0" stroke-dasharray="none" opacity="1.0" fill="#ffffff"/><g id="ProcessOnG1013" transform="matrix(1.0,0.0,0.0,1.0,10.0,6.875)"><text id="ProcessOnText1014" fill="#000000" font-size="13" x="110.0" y="13.325" font-family="微软雅黑" font-weight="normal" font-style="normal" text-decoration="none" family="微软雅黑" text-anchor="middle" size="13">client B</text></g></g><g id="ProcessOnG1015" transform="matrix(1.0,0.0,0.0,1.0,190.0,154.0)" opacity="1.0"><path id="ProcessOnPath1016" d="M0.0 0.0L376.0 0.0L376.0 38.0L0.0 38.0Z" stroke="#323232" stroke-width="2.0" stroke-dasharray="none" opacity="1.0" fill="#ffffff"/><g id="ProcessOnG1017" transform="matrix(1.0,0.0,0.0,1.0,10.0,10.875)"><text id="ProcessOnText1018" fill="#000000" font-size="13" x="177.0" y="13.325" font-family="微软雅黑" font-weight="normal" font-style="normal" text-decoration="none" family="微软雅黑" text-anchor="middle" size="13">set session transaction isolation level serializable;</text></g></g><g id="ProcessOnG1019" transform="matrix(1.0,0.0,0.0,1.0,272.125,279.0)" opacity="1.0"><path id="ProcessOnPath1020" d="M0.0 0.0L211.75 0.0L211.75 63.0L0.0 63.0Z" stroke="#323232" stroke-width="2.0" stroke-dasharray="none" opacity="1.0" fill="#ffffff"/><g id="ProcessOnG1021" transform="matrix(1.0,0.0,0.0,1.0,10.0,23.375)"><text id="ProcessOnText1022" fill="#000000" font-size="13" x="94.875" y="13.325" font-family="微软雅黑" font-weight="normal" font-style="normal" text-decoration="none" family="微软雅黑" text-anchor="middle" size="13">mysql&gt; select * from account;</text></g></g><g id="ProcessOnG1023" transform="matrix(1.0,0.0,0.0,1.0,308.0,215.0)" opacity="1.0"><path id="ProcessOnPath1024" d="M0.0 0.0L140.0 0.0L140.0 34.0L0.0 34.0Z" stroke="#323232" stroke-width="2.0" stroke-dasharray="none" opacity="1.0" fill="#ffffff"/><g id="ProcessOnG1025" transform="matrix(1.0,0.0,0.0,1.0,10.0,8.875)"><text id="ProcessOnText1026" fill="#000000" font-size="13" x="59.0" y="13.325" font-family="微软雅黑" font-weight="normal" font-style="normal" text-decoration="none" family="微软雅黑" text-anchor="middle" size="13">start transaction;</text></g></g><g id="ProcessOnG1027" transform="matrix(1.0,0.0,0.0,1.0,340.0,666.0)" opacity="1.0"><path id="ProcessOnPath1028" d="M0.0 4.0Q0.0 0.0 4.0 0.0L72.0 0.0Q76.0 0.0 76.0 4.0L76.0 36.0Q76.0 40.0 72.0 40.0L4.0 40.0Q0.0 40.0 0.0 36.0Z" stroke="#323232" stroke-width="2.0" stroke-dasharray="none" opacity="1.0" fill="#ffffff"/><g id="ProcessOnG1029" transform="matrix(1.0,0.0,0.0,1.0,10.0,11.875)"><text id="ProcessOnText1030" fill="#000000" font-size="13" x="27.0" y="13.325" font-family="微软雅黑" font-weight="normal" font-style="normal" text-decoration="none" family="微软雅黑" text-anchor="middle" size="13">commit;</text></g></g><g id="ProcessOnG1031" transform="matrix(1.0,0.0,0.0,1.0,760.0,367.0)" opacity="1.0"><path id="ProcessOnPath1032" d="M0.0 0.0L376.0 0.0L376.0 38.0L0.0 38.0Z" stroke="#323232" stroke-width="2.0" stroke-dasharray="none" opacity="1.0" fill="#ffffff"/><g id="ProcessOnG1033" transform="matrix(1.0,0.0,0.0,1.0,10.0,10.875)"><text id="ProcessOnText1034" fill="#000000" font-size="13" x="177.0" y="13.325" font-family="微软雅黑" font-weight="normal" font-style="normal" text-decoration="none" family="微软雅黑" text-anchor="middle" size="13">set session transaction isolation level serializable;</text></g></g><g id="ProcessOnG1035" transform="matrix(1.0,0.0,0.0,1.0,842.125,477.0)" opacity="1.0"><path id="ProcessOnPath1036" d="M0.0 0.0L211.75 0.0L211.75 63.0L0.0 63.0Z" stroke="#323232" stroke-width="2.0" stroke-dasharray="none" opacity="1.0" fill="#ffffff"/><g id="ProcessOnG1037" transform="matrix(1.0,0.0,0.0,1.0,10.0,23.375)"><text id="ProcessOnText1038" fill="#000000" font-size="13" x="94.875" y="13.325" font-family="微软雅黑" font-weight="normal" font-style="normal" text-decoration="none" family="微软雅黑" text-anchor="middle" size="13">mysql&gt; select * from account;</text></g></g><g id="ProcessOnG1039" transform="matrix(1.0,0.0,0.0,1.0,878.0,423.0)" opacity="1.0"><path id="ProcessOnPath1040" d="M0.0 0.0L140.0 0.0L140.0 34.0L0.0 34.0Z" stroke="#323232" stroke-width="2.0" stroke-dasharray="none" opacity="1.0" fill="#ffffff"/><g id="ProcessOnG1041" transform="matrix(1.0,0.0,0.0,1.0,10.0,8.875)"><text id="ProcessOnText1042" fill="#000000" font-size="13" x="59.0" y="13.325" font-family="微软雅黑" font-weight="normal" font-style="normal" text-decoration="none" family="微软雅黑" text-anchor="middle" size="13">start transaction;</text></g></g><g id="ProcessOnG1043" transform="matrix(1.0,0.0,0.0,1.0,700.0,574.0)" opacity="1.0"><path id="ProcessOnPath1044" d="M0.0 0.0L502.0 0.0L502.0 66.0L0.0 66.0Z" stroke="#323232" stroke-width="2.0" stroke-dasharray="none" opacity="1.0" fill="#ffffff"/><g id="ProcessOnG1045" transform="matrix(1.0,0.0,0.0,1.0,10.0,8.625)"><text id="ProcessOnText1046" fill="#000000" font-size="13" x="0.0" y="13.325" font-family="微软雅黑" font-weight="normal" font-style="normal" text-decoration="none" family="微软雅黑" text-anchor="start" size="13">mysql&gt; update account set balance = balance + 50 where id =1;</text><text id="ProcessOnText1047" fill="#000000" font-size="13" x="0.0" y="29.575" font-family="微软雅黑" font-weight="normal" font-style="normal" text-decoration="none" family="微软雅黑" text-anchor="start" size="13">ERROR 1205 (HY000): Lock wait timeout exceeded; try restarting transaction</text><text id="ProcessOnText1048" fill="#000000" font-size="13" x="0.0" y="45.825" font-family="微软雅黑" font-weight="normal" font-style="normal" text-decoration="none" family="微软雅黑" text-anchor="start" size="13">mysql&gt; </text></g></g><g id="ProcessOnG1049" transform="matrix(1.0,0.0,0.0,1.0,740.0,746.0)" opacity="1.0"><path id="ProcessOnPath1050" d="M0.0 0.0L422.0 0.0L422.0 97.0L0.0 97.0Z" stroke="#323232" stroke-width="2.0" stroke-dasharray="none" opacity="1.0" fill="#ffffff"/><g id="ProcessOnG1051" transform="matrix(1.0,0.0,0.0,1.0,10.0,-0.25)"><text id="ProcessOnText1052" fill="#000000" font-size="13" x="0.0" y="13.325" font-family="微软雅黑" font-weight="normal" font-style="normal" text-decoration="none" family="微软雅黑" text-anchor="start" size="13">mysql&gt; update account set balance = balance + 50 where id =1;</text><text id="ProcessOnText1053" fill="#000000" font-size="13" x="0.0" y="29.575" font-family="微软雅黑" font-weight="normal" font-style="normal" text-decoration="none" family="微软雅黑" text-anchor="start" size="13">Query OK, 1 row affected (0.00 sec)</text><text id="ProcessOnText1054" fill="#000000" font-size="13" x="0.0" y="45.825" font-family="微软雅黑" font-weight="normal" font-style="normal" text-decoration="none" family="微软雅黑" text-anchor="start" size="13">Rows matched: 1  Changed: 1  Warnings: 0</text><text id="ProcessOnText1055" fill="#000000" font-size="13" x="0.0" y="62.075" font-family="微软雅黑" font-weight="normal" font-style="normal" text-decoration="none" family="微软雅黑" text-anchor="start" size="13"></text><text id="ProcessOnText1056" fill="#000000" font-size="13" x="0.0" y="78.325" font-family="微软雅黑" font-weight="normal" font-style="normal" text-decoration="none" family="微软雅黑" text-anchor="start" size="13">mysql&gt; </text><text id="ProcessOnText1057" fill="#000000" font-size="13" x="0.0" y="94.575" font-family="微软雅黑" font-weight="normal" font-style="normal" text-decoration="none" family="微软雅黑" text-anchor="start" size="13"></text></g></g><g id="ProcessOnG1058" transform="matrix(1.0,0.0,0.0,1.0,441.0,659.0)" opacity="1.0"><path id="ProcessOnPath1059" d="M0.0 0.0L330.0 0.0L330.0 47.0L0.0 47.0Z" stroke="#323232" stroke-width="2.0" stroke-dasharray="none" opacity="1.0" fill="#ffffff"/><g id="ProcessOnG1060" transform="matrix(1.0,0.0,0.0,1.0,10.0,12.25)"><text id="ProcessOnText1061" fill="#000000" font-size="18" x="154.0" y="18.45" font-family="微软雅黑" font-weight="normal" font-style="normal" text-decoration="none" family="微软雅黑" text-anchor="middle" size="18">事务隔离级别为serializable时会锁表</text></g></g></g></g></svg>